<svg width="11" height="11" viewBox="0 0 11 11" fill="none" xmlns="http://www.w3.org/2000/svg">
<path d="M5.5 8.70825C5.59065 8.70825 5.67926 8.68137 5.75463 8.63101C5.83001 8.58065 5.88875 8.50906 5.92344 8.42532C5.95813 8.34157 5.96721 8.24941 5.94952 8.1605C5.93184 8.07159 5.88819 7.98993 5.82409 7.92583C5.75999 7.86173 5.67832 7.81808 5.58941 7.80039C5.50051 7.78271 5.40835 7.79178 5.3246 7.82647C5.24085 7.86116 5.16927 7.91991 5.11891 7.99528C5.06854 8.07066 5.04166 8.15927 5.04166 8.24992C5.04166 8.37148 5.08995 8.48806 5.17591 8.57401C5.26186 8.65996 5.37844 8.70825 5.5 8.70825ZM7.79166 8.70825C7.88231 8.70825 7.97093 8.68137 8.0463 8.63101C8.12167 8.58065 8.18042 8.50906 8.21511 8.42532C8.2498 8.34157 8.25888 8.24941 8.24119 8.1605C8.22351 8.07159 8.17985 7.98993 8.11575 7.92583C8.05166 7.86173 7.96999 7.81808 7.88108 7.80039C7.79217 7.78271 7.70002 7.79178 7.61627 7.82647C7.53252 7.86116 7.46094 7.91991 7.41057 7.99528C7.36021 8.07066 7.33333 8.15927 7.33333 8.24992C7.33333 8.37148 7.38162 8.48806 7.46757 8.57401C7.55353 8.65996 7.67011 8.70825 7.79166 8.70825ZM7.79166 6.87492C7.88231 6.87492 7.97093 6.84804 8.0463 6.79768C8.12167 6.74731 8.18042 6.67573 8.21511 6.59198C8.2498 6.50823 8.25888 6.41608 8.24119 6.32717C8.22351 6.23826 8.17985 6.15659 8.11575 6.0925C8.05166 6.0284 7.96999 5.98474 7.88108 5.96706C7.79217 5.94937 7.70002 5.95845 7.61627 5.99314C7.53252 6.02783 7.46094 6.08658 7.41057 6.16195C7.36021 6.23732 7.33333 6.32594 7.33333 6.41659C7.33333 6.53814 7.38162 6.65472 7.46757 6.74068C7.55353 6.82663 7.67011 6.87492 7.79166 6.87492ZM5.5 6.87492C5.59065 6.87492 5.67926 6.84804 5.75463 6.79768C5.83001 6.74731 5.88875 6.67573 5.92344 6.59198C5.95813 6.50823 5.96721 6.41608 5.94952 6.32717C5.93184 6.23826 5.88819 6.15659 5.82409 6.0925C5.75999 6.0284 5.67832 5.98474 5.58941 5.96706C5.50051 5.94937 5.40835 5.95845 5.3246 5.99314C5.24085 6.02783 5.16927 6.08658 5.11891 6.16195C5.06854 6.23732 5.04166 6.32594 5.04166 6.41659C5.04166 6.53814 5.08995 6.65472 5.17591 6.74068C5.26186 6.82663 5.37844 6.87492 5.5 6.87492ZM8.70833 1.37492H8.25V0.916585C8.25 0.795028 8.20171 0.678449 8.11575 0.592495C8.0298 0.50654 7.91322 0.458252 7.79166 0.458252C7.67011 0.458252 7.55353 0.50654 7.46757 0.592495C7.38162 0.678449 7.33333 0.795028 7.33333 0.916585V1.37492H3.66666V0.916585C3.66666 0.795028 3.61838 0.678449 3.53242 0.592495C3.44647 0.50654 3.32989 0.458252 3.20833 0.458252C3.08677 0.458252 2.97019 0.50654 2.88424 0.592495C2.79829 0.678449 2.75 0.795028 2.75 0.916585V1.37492H2.29166C1.92699 1.37492 1.57725 1.51978 1.31939 1.77765C1.06153 2.03551 0.916664 2.38525 0.916664 2.74992V9.16659C0.916664 9.53126 1.06153 9.881 1.31939 10.1389C1.57725 10.3967 1.92699 10.5416 2.29166 10.5416H8.70833C9.073 10.5416 9.42274 10.3967 9.6806 10.1389C9.93847 9.881 10.0833 9.53126 10.0833 9.16659V2.74992C10.0833 2.38525 9.93847 2.03551 9.6806 1.77765C9.42274 1.51978 9.073 1.37492 8.70833 1.37492ZM9.16666 9.16659C9.16666 9.28814 9.11838 9.40472 9.03242 9.49068C8.94647 9.57663 8.82989 9.62492 8.70833 9.62492H2.29166C2.17011 9.62492 2.05353 9.57663 1.96757 9.49068C1.88162 9.40472 1.83333 9.28814 1.83333 9.16659V5.04159H9.16666V9.16659ZM9.16666 4.12492H1.83333V2.74992C1.83333 2.62836 1.88162 2.51178 1.96757 2.42583C2.05353 2.33987 2.17011 2.29159 2.29166 2.29159H2.75V2.74992C2.75 2.87148 2.79829 2.98806 2.88424 3.07401C2.97019 3.15996 3.08677 3.20825 3.20833 3.20825C3.32989 3.20825 3.44647 3.15996 3.53242 3.07401C3.61838 2.98806 3.66666 2.87148 3.66666 2.74992V2.29159H7.33333V2.74992C7.33333 2.87148 7.38162 2.98806 7.46757 3.07401C7.55353 3.15996 7.67011 3.20825 7.79166 3.20825C7.91322 3.20825 8.0298 3.15996 8.11575 3.07401C8.20171 2.98806 8.25 2.87148 8.25 2.74992V2.29159H8.70833C8.82989 2.29159 8.94647 2.33987 9.03242 2.42583C9.11838 2.51178 9.16666 2.62836 9.16666 2.74992V4.12492ZM3.20833 6.87492C3.29898 6.87492 3.38759 6.84804 3.46297 6.79768C3.53834 6.74731 3.59709 6.67573 3.63178 6.59198C3.66647 6.50823 3.67554 6.41608 3.65786 6.32717C3.64017 6.23826 3.59652 6.15659 3.53242 6.0925C3.46832 6.0284 3.38666 5.98474 3.29775 5.96706C3.20884 5.94937 3.11668 5.95845 3.03293 5.99314C2.94918 6.02783 2.8776 6.08658 2.82724 6.16195C2.77688 6.23732 2.75 6.32594 2.75 6.41659C2.75 6.53814 2.79829 6.65472 2.88424 6.74068C2.97019 6.82663 3.08677 6.87492 3.20833 6.87492ZM3.20833 8.70825C3.29898 8.70825 3.38759 8.68137 3.46297 8.63101C3.53834 8.58065 3.59709 8.50906 3.63178 8.42532C3.66647 8.34157 3.67554 8.24941 3.65786 8.1605C3.64017 8.07159 3.59652 7.98993 3.53242 7.92583C3.46832 7.86173 3.38666 7.81808 3.29775 7.80039C3.20884 7.78271 3.11668 7.79178 3.03293 7.82647C2.94918 7.86116 2.8776 7.91991 2.82724 7.99528C2.77688 8.07066 2.75 8.15927 2.75 8.24992C2.75 8.37148 2.79829 8.48806 2.88424 8.57401C2.97019 8.65996 3.08677 8.70825 3.20833 8.70825Z" fill="#FFA454"/>
</svg>
